<svg width="39" height="39" viewBox="0 0 39 39" fill="none" xmlns="http://www.w3.org/2000/svg">
<path d="M33.5002 17.8537C25.8475 19.8232 19.822 25.8487 17.8525 33.5014C17.4051 35.2412 17.1667 37.0656 17.1667 38.9462H22.6116C22.6116 37.0374 22.9387 35.2044 23.5411 33.5014C25.1812 28.8604 28.8592 25.1825 33.5002 23.5423C35.2032 22.94 37.0362 22.6128 38.945 22.6128V17.168C37.0654 17.1669 35.2411 17.4052 33.5002 17.8537Z" fill="#A5E547"/>
<path d="M23.541 6.27784C22.9387 4.57484 22.6115 2.74184 22.6115 0.833008H17.1667C17.1667 2.74184 16.8395 4.57484 16.2372 6.27784C14.597 10.9188 10.9191 14.5968 6.27809 16.2369C4.57508 16.8393 2.74209 17.1664 0.833252 17.1664V22.6113C2.74209 22.6113 4.57508 22.9384 6.27809 23.5408C10.593 25.0661 14.0738 28.354 15.8602 32.5378C16.4755 30.3159 17.3953 28.2251 18.5783 26.3163C16.6933 23.6729 14.2308 21.4716 11.3773 19.8899C14.9513 17.9085 17.9088 14.951 19.8902 11.3771C21.4729 14.2306 23.6732 16.693 26.3165 18.578C28.2253 17.395 30.3162 16.4753 32.5381 15.8599C28.3543 14.0724 25.0663 10.5928 23.541 6.27784Z" fill="#F6F6F6"/>
</svg>
