<svg width="149" height="27" viewBox="0 0 149 27" fill="none" xmlns="http://www.w3.org/2000/svg">
<g clip-path="url(#clip0_3169_57092)">
<mask id="mask0_3169_57092" style="mask-type:luminance" maskUnits="userSpaceOnUse" x="0" y="0" width="149" height="27">
<path d="M148.867 0.347656H0V26.5535H148.867V0.347656Z" fill="white"/>
</mask>
<g mask="url(#mask0_3169_57092)">
<path d="M13.1726 2.31962C12.6103 2.84371 12.0577 3.35808 11.505 3.87003C8.9381 6.25267 6.3712 8.63774 3.80185 11.0155C3.21286 11.5615 2.60202 12.0855 1.86273 12.4058C0.98286 12.7867 0.478686 12.549 0.195091 11.6003C-0.200006 10.2731 0.0108734 9.03565 0.774402 7.89529C1.42402 6.92475 2.24328 6.11681 3.08438 5.33069C4.42479 4.0787 5.77491 2.83885 7.14198 1.62083C7.74069 1.08705 8.39515 0.599363 9.19503 0.436799C11.5899 -0.0460365 13.117 2.24925 13.1751 2.31718L13.1726 2.31962Z" fill="#4779FF"/>
<path d="M1.65027 14.4381C3.10703 14.0183 4.20022 13.0939 5.26431 12.121C8.65777 9.02501 12.0464 5.92661 15.4544 2.84762C16.2059 2.16826 16.996 1.518 17.8322 0.950245C18.8964 0.227202 20.0526 0.12287 21.1918 0.811945C21.6038 1.05943 22.0086 1.34816 22.3431 1.6927C23.5041 2.89373 24.6507 4.11416 25.768 5.35644C26.9559 6.67635 28.1241 8.01568 29.2609 9.37926C29.6511 9.84754 29.9711 10.3934 30.2354 10.9467C30.7274 11.9754 30.6014 12.992 30.0026 13.9505C29.4669 14.8093 28.7495 15.5131 28.0103 16.1802C25.116 18.7959 22.2219 21.4114 19.2939 23.9905C18.5086 24.6843 17.6432 25.3056 16.7511 25.8539C15.0714 26.89 13.3868 26.7614 11.8549 25.5337C10.9629 24.8203 10.1242 24.022 9.35827 23.1729C6.89075 20.4384 4.46926 17.6651 2.03082 14.904C1.9072 14.7657 1.79569 14.6153 1.65027 14.4357V14.4381Z" fill="#4779FF"/>
<path d="M51.857 0.888169H55.5366V20.8372H51.857V19.1558C50.7736 20.5437 49.232 21.2352 47.237 21.2352C45.2423 21.2352 43.6765 20.5073 42.3166 19.054C40.9569 17.6006 40.2781 15.8198 40.2781 13.7112C40.2781 11.6028 40.9569 9.82186 42.3166 8.3685C43.6765 6.91514 45.315 6.18724 47.237 6.18724C49.1593 6.18724 50.7736 6.88117 51.857 8.26659V0.885742V0.888169ZM45.0823 16.6058C45.8337 17.3556 46.779 17.7316 47.9207 17.7316C49.0623 17.7316 50.0028 17.3556 50.7445 16.6058C51.4862 15.8561 51.857 14.8904 51.857 13.7137C51.857 12.5369 51.4862 11.5712 50.7445 10.8215C50.0028 10.0718 49.0623 9.69569 47.9207 9.69569C46.779 9.69569 45.8337 10.0718 45.0823 10.8215C44.3308 11.5712 43.9552 12.5369 43.9552 13.7137C43.9552 14.8904 44.3308 15.8561 45.0823 16.6058Z" fill="white"/>
<path d="M67.8289 6.58789H71.7655L66.5662 20.8619C65.8245 22.8977 64.8427 24.3753 63.6162 25.2972C62.3921 26.2193 60.8676 26.6341 59.0448 26.5371V23.1184C60.0337 23.1378 60.8167 22.9291 61.3983 22.4924C61.9777 22.0557 62.4405 21.352 62.7824 20.3839L56.9359 6.59033H60.9571L64.6754 16.167L67.8314 6.59033L67.8289 6.58789Z" fill="white"/>
<path d="M81.1196 6.19285C82.6781 6.19285 83.9676 6.71452 84.9833 7.76025C86.0014 8.80601 86.5078 10.2497 86.5078 12.0912V20.8405H82.8285V12.5474C82.8285 11.5987 82.5715 10.8708 82.0576 10.3661C81.5437 9.86386 80.8602 9.61153 80.0046 9.61153C79.0544 9.61153 78.2933 9.90512 77.7237 10.4947C77.1541 11.0843 76.8681 11.9675 76.8681 13.1442V20.8381H73.1886V6.58835H76.8681V8.18487C77.7625 6.85525 79.178 6.19043 81.1172 6.19043L81.1196 6.19285Z" fill="white"/>
<path d="M99.9005 6.59078H103.58V20.8406H99.9005V19.1591C98.7976 20.5469 97.2488 21.2384 95.2514 21.2384C93.2541 21.2384 91.7198 20.5106 90.3599 19.0572C89.0001 17.6037 88.3214 15.8229 88.3214 13.7144C88.3214 11.606 89.0001 9.82504 90.3599 8.37168C91.7198 6.91833 93.3486 6.19043 95.2514 6.19043C97.2488 6.19043 98.7976 6.88436 99.9005 8.26978V6.58834V6.59078ZM93.111 16.609C93.8528 17.3587 94.7933 17.7347 95.935 17.7347C97.0766 17.7347 98.022 17.3587 98.7733 16.609C99.5246 15.8592 99.9005 14.8937 99.9005 13.7169C99.9005 12.5401 99.5246 11.5744 98.7733 10.8247C98.022 10.075 97.0766 9.69888 95.935 9.69888C94.7933 9.69888 93.8528 10.075 93.111 10.8247C92.3694 11.5744 91.9985 12.5401 91.9985 13.7169C91.9985 14.8937 92.3694 15.8592 93.111 16.609Z" fill="white"/>
<path d="M121.682 6.19043C123.318 6.19043 124.625 6.72178 125.604 7.78695C126.584 8.8521 127.073 10.2763 127.073 12.0621V20.8406H123.394V12.3193C123.394 11.4652 123.185 10.8004 122.766 10.3249C122.346 9.84931 121.757 9.61153 120.996 9.61153C120.16 9.61153 119.508 9.88813 119.043 10.4389C118.577 10.9897 118.345 11.7879 118.345 12.8336V20.843H114.665V12.3217C114.665 11.4677 114.457 10.8029 114.037 10.3273C113.618 9.85173 113.029 9.61396 112.268 9.61396C111.451 9.61396 110.799 9.89056 110.314 10.4413C109.829 10.9921 109.587 11.7904 109.587 12.8361V20.8454H105.908V6.59562H109.587V8.10721C110.443 6.8334 111.764 6.19771 113.553 6.19771C115.341 6.19771 116.595 6.88192 117.431 8.25037C118.381 6.88192 119.799 6.19771 121.68 6.19771L121.682 6.19043Z" fill="white"/>
<path d="M131.229 4.88001C130.621 4.88001 130.093 4.6568 129.647 4.21035C129.201 3.76391 128.975 3.23739 128.975 2.62839C128.975 2.01939 129.198 1.48802 129.647 1.03188C130.093 0.575729 130.621 0.347656 131.229 0.347656C131.837 0.347656 132.393 0.575729 132.841 1.03188C133.288 1.48802 133.511 2.01939 133.511 2.62839C133.511 3.23739 133.288 3.76391 132.841 4.21035C132.396 4.6568 131.857 4.88001 131.229 4.88001ZM129.404 20.8403V6.59056H133.084V20.8403H129.404Z" fill="white"/>
<path d="M142.42 21.2384C140.27 21.2384 138.478 20.5178 137.044 19.0717C135.609 17.6281 134.891 15.8423 134.891 13.7144C134.891 11.5866 135.609 9.80078 137.044 8.35712C138.478 6.91347 140.272 6.19043 142.42 6.19043C143.81 6.19043 145.072 6.52282 146.213 7.18764C147.355 7.85245 148.22 8.74533 148.809 9.8663L145.643 11.7176C145.357 11.128 144.927 10.6621 144.347 10.32C143.768 9.9779 143.116 9.80806 142.394 9.80806C141.29 9.80806 140.377 10.1744 139.655 10.9048C138.932 11.6375 138.57 12.5716 138.57 13.7121C138.57 14.8524 138.932 15.7598 139.655 16.4902C140.377 17.2229 141.29 17.5868 142.394 17.5868C143.135 17.5868 143.794 17.4219 144.376 17.087C144.956 16.7546 145.389 16.2936 145.674 15.704L148.868 17.5285C148.241 18.6495 147.355 19.5473 146.216 20.2219C145.075 20.8963 143.812 21.2335 142.423 21.2335L142.42 21.2384Z" fill="white"/>
</g>
</g>
<defs>
<clipPath id="clip0_3169_57092">
<rect width="149" height="26.2779" fill="white" transform="translate(0 0.364258)"/>
</clipPath>
</defs>
</svg>
