<svg width="24" height="24" viewBox="0 0 24 24" fill="none" xmlns="http://www.w3.org/2000/svg">
<rect width="24" height="24" rx="6" fill="#535353" fill-opacity="0.2"/>
<path d="M18.6666 9.66699H5.33331M5.33331 12.3337H7.69776C8.05789 12.3337 8.23795 12.3337 8.41207 12.3647C8.56662 12.3922 8.71738 12.4379 8.86125 12.5007C9.02334 12.5715 9.17316 12.6713 9.4728 12.8711L9.86049 13.1296C10.1601 13.3293 10.31 13.4292 10.472 13.5C10.6159 13.5628 10.7667 13.6084 10.9212 13.636C11.0953 13.667 11.2754 13.667 11.6355 13.667H12.3644C12.7246 13.667 12.9046 13.667 13.0787 13.636C13.2333 13.6084 13.384 13.5628 13.5279 13.5C13.69 13.4292 13.8398 13.3293 14.1395 13.1296L14.5272 12.8711C14.8268 12.6713 14.9766 12.5715 15.1387 12.5007C15.2826 12.4379 15.4333 12.3922 15.5879 12.3647C15.762 12.3337 15.9421 12.3337 16.3022 12.3337H18.6666M5.33331 8.80033L5.33331 15.2003C5.33331 15.9471 5.33331 16.3204 5.47864 16.6056C5.60647 16.8565 5.81044 17.0605 6.06133 17.1883C6.34654 17.3337 6.71991 17.3337 7.46665 17.3337L16.5333 17.3337C17.28 17.3337 17.6534 17.3337 17.9386 17.1883C18.1895 17.0605 18.3935 16.8565 18.5213 16.6056C18.6666 16.3204 18.6666 15.9471 18.6666 15.2003V8.80033C18.6666 8.05359 18.6666 7.68022 18.5213 7.39501C18.3935 7.14412 18.1895 6.94015 17.9386 6.81232C17.6534 6.66699 17.28 6.66699 16.5333 6.66699L7.46665 6.66699C6.71991 6.66699 6.34654 6.66699 6.06133 6.81232C5.81044 6.94015 5.60647 7.14412 5.47864 7.395C5.33331 7.68022 5.33331 8.05359 5.33331 8.80033Z" stroke="#F6F6F6" stroke-width="1.2" stroke-linecap="round" stroke-linejoin="round"/>
</svg>
